<svg width="120" height="50" viewBox="0 0 356 200" className="css-1j8o68f">
    <defs id="SvgjsDefs3909"></defs>
    <g id="SvgjsG3910" featurekey="symbolFeature-0"
        transform="matrix(3.1269003078662756,0,0,3.1269003078662756,-31.299405022478652,18.74619938426745)"
        fill="#000000">
        <g xmlns="http://www.w3.org/2000/svg">
            <g>
                <path
                    d="M25.9999409,48.5400391c-0.2602539,0-0.515625-0.1015625-0.7070313-0.2929688    c-0.1855469-0.1855469-0.3007813-0.4462891-0.3027344-0.7089844c-0.0317383-4.0908203-0.7626953-14.7460938-6.847168-25.3193359    c-0.1176758-0.2041016-0.1591797-0.4433594-0.1176758-0.6757813c1.4819336-8.2529297,3.6801758-16.0576172,3.7021484-16.1357422    C22.2123432,3.4277344,23.9579487,2.0126953,25.9638081,2c2.078125,0.0126953,3.8237305,1.4277344,4.3173828,3.4414063    c0.0131836,0.0439453,2.2114239,7.8388672,3.6933575,16.1015625c0.0415039,0.2324219,0,0.4716797-0.1181641,0.6757813    c-6.0942364,10.5751953-6.8251934,21.2363281-6.8564434,25.3291016c-0.0029297,0.4033203-0.2480469,0.7646484-0.6210938,0.9179688    C26.2562885,48.515625,26.1278706,48.5400391,25.9999409,48.5400391z M20.0585346,21.5400391    c3.2749023,5.7900391,5.0185547,11.5849609,5.9375,16.3730469c0.9204102-4.7890625,2.6660156-10.5849609,5.9453125-16.3740234    c-1.4619141-8.0283203-3.5722656-15.5107422-3.5932617-15.5869141C28.067812,4.8134766,27.0941792,4.0068359,26.0233784,4    c-1.1176758,0.0068359-2.0913086,0.8134766-2.3623047,1.9179688C23.6308002,6.0273438,21.520937,13.5205078,20.0585346,21.5400391    z"></path>
            </g>
            <g>
                <path
                    d="M25.9696674,50c-0.0400391,0-0.0805664-0.0029297-0.1210938-0.0078125    c-7.6293945-0.9335938-10.296876-7.0898438-11.2080088-10.6757813c-0.4301758-1.6914063-0.5771484-3.5068359-0.4487305-5.5488281    c0.7607422-11.9619141-3.5761719-20.8681641-4.0732422-21.84375c-0.2211914-0.4345703-0.0966797-0.9658203,0.2949219-1.2568359    c0.3911133-0.2890625,0.9360352-0.2568359,1.2880859,0.0810547c3.1669922,3.0351563,5.9174814,6.5585938,8.1743174,10.4716797    c6.3222656,10.9863281,7.0810547,22.0537109,7.1142578,26.3027344c0.0102539,0.9794922-0.0214844,1.5332031-0.0214844,1.5332031    c-0.0161133,0.2763672-0.1455078,0.5341797-0.3574219,0.7109375C26.4301167,49.9179688,26.2030659,50,25.9696674,50z     M13.923768,16.0976563c1.3325195,4.1201172,2.7338877,10.4111328,2.2641611,17.7958984    c-0.1147461,1.8300781,0.0131836,3.4433594,0.3911133,4.9306641c0.8994141,3.5410156,3.0913086,7.8583984,8.4130859,8.9990234    c-0.0004883-0.0888672-0.0009766-0.1835938-0.0019531-0.2822266c-0.0317383-4.09375-0.7626953-14.7490234-6.847168-25.3222656    C16.8900776,20.0458984,15.4789438,17.9990234,13.923768,16.0976563z"></path>
            </g>
            <g>
                <path
                    d="M26.0204487,50c-0.2329102,0-0.4604492-0.0820313-0.6411133-0.2324219    c-0.2119141-0.1777344-0.3417969-0.4345703-0.3579102-0.7099609c0,0-0.0317383-0.5439453-0.0214844-1.5283203    c0.0327148-4.2480469,0.7919922-15.3222656,7.1240215-26.3085938c2.2314453-3.8886719,4.9819336-7.4130859,8.1743164-10.4726563    c0.3544922-0.3408203,0.9023438-0.3730469,1.2944336-0.0761719c0.3916016,0.2949219,0.5107422,0.8310547,0.2817383,1.2646484    c-0.1992188,0.3769531-4.8686523,9.3720703-4.0766602,21.8300781c0,0,0,0,0,0.0009766    c0.1298828,2.0615234-0.0136719,3.8769531-0.4384766,5.5488281c-0.921875,3.5888672-3.6040039,9.7451172-11.2177715,10.6757813    C26.1010151,49.9970703,26.0604877,50,26.0204487,50z M38.0487671,16.125    c-1.5532227,1.9013672-2.9550781,3.9384766-4.1914063,6.0927734c-6.0952129,10.5761719-6.82617,21.2373047-6.85742,25.3300781    c-0.0009766,0.0966797-0.0014648,0.1884766-0.0019531,0.2753906c5.3115215-1.1396484,7.51367-5.4589844,8.4233379-9.0019531    c0.3725586-1.4648438,0.4970703-3.0771484,0.3803711-4.9287109C35.3305054,26.484375,36.7235718,20.2197266,38.0487671,16.125z"></path>
            </g>
        </g>
    </g>
    <g id="SvgjsG3911" featurekey="textGroupContainer" transform="matrix(1,0,0,1,355,0)"
        fill="#000000">
        <rect xmlns="http://www.w3.org/2000/svg" y="0" height="1" width="1" opacity="0"></rect>
        <rect xmlns="http://www.w3.org/2000/svg" y="0" x="-235" width="3" height="200"></rect>
    </g>
    <g id="SvgjsG3912" featurekey="nameFeature-0"
        transform="matrix(2.2665456431266198,0,0,2.2665456431266198,136.1867598108699,25.249321404133603)"
        fill="#000000">
        <path
            d="M27.4 34.96 c1.44 3.68 2.16 4.64 3.96 4.88 l0 0.16 l-11.24 0 l0 -0.16 c2.8 -0.24 4.4 -1.12 3 -4.64 l-0.8 -2 l-15.64 0 l-0.88 2 c-1.48 3.44 0.12 4.16 2.36 4.64 l0 0.16 l-7.36 0 l0 -0.16 c1.68 -0.48 2.64 -1.24 4.12 -4.68 l8.88 -20.48 l-0.08 -0.88 l0.64 -0.44 l3.72 -2.44 c0 0.32 0.04 0.64 0.88 2.72 z M6.96 32.480000000000004 l15.08 0 l-7.24 -18.08 z M61.400000000000006 40 l0.24 -2.76 l0 -9.52 c0 -4.56 -2 -5.64 -3.84 -5.64 c-2.2 0 -3.92 1.48 -6 3.04 c0.12 0.72 0.2 1.56 0.2 2.52 l0 8.64 c0 2.16 0.36 2.92 1.56 3.72 l-5.48 0 l0.24 -2.76 l0 -9.52 c0 -4.56 -2 -5.64 -3.84 -5.64 c-2.12 0 -3.8 1.4 -5.8 2.88 l0 11.32 c0 2.16 0.36 2.92 1.56 3.72 l-5.48 0 l0.24 -2.76 l0 -15.36 c-0.56 -0.36 -1.6 -0.64 -2.44 -0.72 l0 -0.16 l6.32 -0.6 l-0.2 2.96 l0 0.72 c2.12 -1.56 4.84 -3.72 8 -3.72 c1.88 0 4.12 0.76 4.96 4.04 l0 -0.04 c2.16 -1.6 5 -4 8.36 -4 c2.4 0 5.32 1.24 5.32 7.28 l0 8.64 c0 2.16 0.36 2.92 1.56 3.72 l-5.48 0 z M72.52000000000001 16.24 c-1.32 0 -2.32 -1 -2.32 -2.32 c0 -1.28 1 -2.28 2.32 -2.28 c1.28 0 2.28 1 2.28 2.28 c0 1.32 -1 2.32 -2.28 2.32 z M70.68 40 l0.24 -2.76 l0 -15.36 c-0.56 -0.36 -1.6 -0.64 -2.44 -0.72 l0 -0.16 l6.32 -0.6 l-0.2 2.96 l0 12.92 c0 2.16 0.36 2.92 1.56 3.72 l-5.48 0 z M83.36000000000001 40.64 l-2.96 -1 l0.12 -2.4 l0 -19.04 c0 -1.68 -0.76 -1.52 -3.36 -0.76 l0 -0.24 l7.36 -3.4 l-0.32 1.64 l0 5.16 l4.84 0 l-0.2 0.96 l-4.64 0 l0 17.72 l4.84 -0.16 l0 0.16 l-4.84 1.36 l-0.84 0 z"></path>
    </g>
    <g id="SvgjsG3913" featurekey="sloganFeature-0"
        transform="matrix(1.5816530085203966,0,0,1.5816530085203966,137.5255030415766,117.51008119468669)"
        fill="#000000">
        <path
            d="M11.12 17.36 c1.18 1.62 1.94 2.06 2.98 2.58 l0 0.06 l-3.62 0 l0 -0.34 l-3.9 -5.4 l-0.18 0 l-2.54 0 l0 4.6 c0 0.72 0.7 0.94 1.52 1.04 l0 0.1 l-5.08 0 l0 -0.1 c0.82 -0.1 1.52 -0.32 1.52 -1.04 l0 -11.72 c0 -0.72 -0.7 -0.94 -1.52 -1.04 l0 -0.1 l7.02 0 c3.22 0 5.28 1.22 5.28 3.68 c0 2.08 -1.5 3.72 -3.96 4.32 z M3.86 13.46 c1.06 0.3 2.06 0.44 3.14 0.44 c2.48 0 3.6 -0.7 3.6 -3.48 c0 -2 -0.6 -4.06 -4.36 -4.06 l-2.38 0 l0 7.1 z M23.939999999999998 18 l0.1 0.08 c-0.6 1.12 -2.22 2.06 -4.28 2.06 c-2.78 0 -5.06 -1.74 -5.06 -4.76 c0 -3.22 2.64 -5.2 5.54 -5.2 c4.16 0 4.62 4.26 2.12 4.26 l-5.72 0 c0.02 2.74 1.58 4.82 3.98 4.82 c1.06 0 2.7 -0.4 3.32 -1.26 z M19.52 10.54 c-1.62 0 -2.78 1.32 -2.88 3.58 l4.92 -0.06 c1.22 -0.02 0.56 -3.52 -2.04 -3.52 z M29.18 20.14 c-1.58 0 -3 -0.52 -3.84 -1.18 l1.12 -1.86 l0.04 0 c-0.02 1.74 1.88 2.74 3.44 2.74 c1.38 0 1.84 -0.78 1.84 -1.72 c0 -1.32 -0.94 -1.84 -2.5 -2.08 c-3.08 -0.48 -3.7 -1.96 -3.7 -3.04 c0 -1.78 1.68 -2.82 3.8 -2.82 c1.48 0 2.86 0.5 3.64 1.14 l-1.26 1.88 l-0.04 0 c0.08 -1.74 -1.7 -2.72 -3.06 -2.72 c-1.32 0 -1.68 0.9 -1.68 1.66 c0 1.42 1.38 1.82 2.64 2.02 c3.02 0.48 3.56 1.84 3.56 2.9 c0 1.78 -1.52 3.08 -4 3.08 z M36.88 20.32 l-1.48 -0.5 l0.06 -1.2 l0 -9.52 c0 -0.84 -0.38 -0.76 -1.68 -0.38 l0 -0.12 l3.68 -1.7 l-0.16 0.82 l0 2.58 l2.42 0 l-0.1 0.48 l-2.32 0 l0 8.86 l2.42 -0.08 l0 0.08 l-2.42 0.68 l-0.42 0 z M50.54 18.36 c0 1.08 0.18 1.42 0.78 1.82 l0 0.06 l-3.12 -0.62 s0.02 0 0.02 -0.02 c-0.64 0.34 -1.44 0.54 -2.38 0.54 c-2.78 0 -4.82 -1.7 -4.82 -4.6 c0 -2.88 2.04 -5.36 6.2 -5.36 c1.28 0 2.32 0.24 3.32 0.74 l0 7.44 z M42.96 14.46 c0 2.86 1.74 5.12 4.04 5.12 c0.78 0 1.26 -0.26 1.66 -0.7 c0.02 -0.2 0.04 -0.46 0.04 -0.78 l0 -6.44 c-0.6 -0.64 -1.38 -1.1 -2.48 -1.1 c-2.06 0 -3.26 1.54 -3.26 3.9 z M62.599999999999994 19.36 c0.28 0.18 0.8 0.32 1.12 0.36 l0 0.08 l-2.96 0.3 l0 -1.92 c-1.06 0.8 -2.62 1.96 -4.5 1.96 c-1.2 0 -2.76 -0.62 -2.76 -3.64 l0 -4.3 c0 -1.08 -0.18 -1.46 -1.08 -1.86 l0 -0.04 l3.04 0 l-0.12 1.38 l0 4.78 c0 2.28 1.12 2.82 2.06 2.82 c1.36 0 2.36 -0.78 3.36 -1.54 l0 -5.54 c0 -1.08 -0.18 -1.46 -1.08 -1.86 l0 -0.04 l3.04 0 l-0.12 1.38 l0 7.68 z M70.46 10.2 c0.36 0 0.68 0.06 1.06 0.24 l-1.72 2.8 l-0.08 0 c0.54 -1.34 0.06 -1.92 -0.58 -1.92 c-1.02 0 -1.66 1.28 -1.86 2.68 l0 4.14 c0 1.08 0.18 1.46 0.78 1.86 l-2.72 0 l0.1 -1.38 l0 -7.68 c-0.28 -0.18 -0.8 -0.32 -1.22 -0.36 l0 -0.08 l3.16 -0.3 l-0.1 1.48 l0 0.64 l0.26 0 c0.46 -1.28 1.58 -2.12 2.92 -2.12 z M82.13999999999999 18.36 c0 1.08 0.18 1.42 0.78 1.82 l0 0.06 l-3.12 -0.62 s0.02 0 0.02 -0.02 c-0.64 0.34 -1.44 0.54 -2.38 0.54 c-2.78 0 -4.82 -1.7 -4.82 -4.6 c0 -2.88 2.04 -5.36 6.2 -5.36 c1.28 0 2.32 0.24 3.32 0.74 l0 7.44 z M74.55999999999999 14.46 c0 2.86 1.74 5.12 4.04 5.12 c0.78 0 1.26 -0.26 1.66 -0.7 c0.02 -0.2 0.04 -0.46 0.04 -0.78 l0 -6.44 c-0.6 -0.64 -1.38 -1.1 -2.48 -1.1 c-2.06 0 -3.26 1.54 -3.26 3.9 z M92.28 20 l0.12 -1.38 l0 -4.76 c0 -2.28 -1.12 -2.82 -2.16 -2.82 c-1.28 0 -2.24 0.78 -3.26 1.46 l0 5.64 c0 1.08 0.18 1.46 0.78 1.86 l-2.74 0 l0.12 -1.38 l0 -7.68 c-0.28 -0.18 -0.8 -0.32 -1.22 -0.36 l0 -0.08 l3.16 -0.3 l-0.1 1.48 l0 0.38 c1.08 -0.72 2.62 -1.88 4.4 -1.88 c1.3 0 2.86 0.62 2.86 3.64 l0 4.32 c0 1.08 0.18 1.46 0.78 1.86 l-2.74 0 z M98.62 20.32 l-1.48 -0.5 l0.06 -1.2 l0 -9.52 c0 -0.84 -0.38 -0.76 -1.68 -0.38 l0 -0.12 l3.68 -1.7 l-0.16 0.82 l0 2.58 l2.42 0 l-0.1 0.48 l-2.32 0 l0 8.86 l2.42 -0.08 l0 0.08 l-2.42 0.68 l-0.42 0 z"></path>
    </g>
</svg>